<?xml version="1.0" encoding="utf-8"?>
<!-- Generator: Adobe Illustrator 25.4.1, SVG Export Plug-In . SVG Version: 6.00 Build 0)  -->
<svg version="1.1" xmlns="http://www.w3.org/2000/svg" xmlns:xlink="http://www.w3.org/1999/xlink" x="0px" y="0px"
	 viewBox="0 0 653.7 789.8" style="enable-background:new 0 0 653.7 789.8;" xml:space="preserve">
<style type="text/css">
	.st0{display:none;}
	.st1{display:inline;fill:#0C0A09;}
	.st2{display:inline;}
	.st3{display:inline;clip-path:url(#SVGID_00000176023860475566043840000004017051697490884256_);}
	.st4{opacity:0.75;fill:url(#SVGID_00000168838199223175339310000011460465996627978884_);}
	.st5{fill:url(#SVGID_00000039106831459472247170000010085511703584295847_);}
	.st6{fill:url(#SVGID_00000112616123833645128590000001411025224733559971_);}
	.st7{fill:#E0003B;}
	.st8{fill:#F76400;}
</style>
<g id="BACKGROUND" class="st0">
	<rect x="-213.6" y="-145.1" class="st1" width="1080" height="1080"/>
</g>
<g id="LOGO_00000139269637393414584210000006256269713214926988_">
	<g>
		<g class="st0">
			<defs>
				<path id="SVGID_1_" d="M-61.2,792c-3.8-20.6-18.5-31.5-41.3-31.5c-21.1,0-34.4,10.4-34.4,24.8c0,13.8,11.8,18.4,27.5,22.2
					l32.4,7.7c30.4,7.6,61.6,15.6,61.6,60.5c0,40.7-36.8,59.3-80.8,59.3c-48.1,0-82.5-22.7-88.2-65.3l40.9-4.1
					c3.1,28,23.7,37.9,47.8,37.9c22.2,0,38.2-9.7,38.2-26.4c0-17-12.8-21.4-32.7-26.3l-32.1-8.1c-27-6.9-55.6-16.5-55.6-55.2
					c0-37,33.3-58,76.7-58c43.8,0,72.3,21.3,80.4,59.8L-61.2,792z M148.4,887.2c-5.7,20.7-25.1,46.7-71.3,46.7
					C32.2,933.9,4,904.2,4,857.8c0-46.8,27.4-76.6,72.9-76.6c45.7,0,76.4,30,72.7,84.6H43.3c0.5,24.1,13.5,40.8,33.8,40.8
					c21.1,0,29.2-13.1,32-22.6L148.4,887.2z M76.9,808c-20.5,0-31.7,14.9-33.1,32.9h66.5C108.9,822.9,97.6,808,76.9,808L76.9,808z
					 M240.9,905c20.9,0,28.8-15.4,32-28.3l39.1,4.5c-6.1,24.3-25.3,52.7-71.1,52.7c-45.1,0-73-29.5-73-76.3
					c0-46.8,27.9-76.5,73-76.5c45.6,0,63.5,28.6,68.8,46.1l-37.5,8.3c-3.2-10.5-11.1-25.4-31.3-25.4c-20.5,0-33.7,16.1-33.7,47.5
					C207.3,889,220.5,905,240.9,905L240.9,905z M401,900.5c3.9,0,8.8,0,12.3-0.2v30.2c-3.7,0.4-15.8,0.6-25.3,0.6
					c-29.7,0-42.6-6.4-42.6-35.3v-85.2h-23.2v-26h23.2v-40.7H384v40.7h30.4v26H384v75.6C384,899.2,389,900.5,401,900.5L401,900.5z
					 M574.4,857.7c0,46.7-28.4,76.3-74.4,76.3c-46.3,0-74.6-29.5-74.6-76.3c0-46.8,28.3-76.5,74.6-76.5
					C546,781.2,574.4,810.8,574.4,857.7z M535.1,857.7c0-31.3-13.7-47.5-35.1-47.5c-21.7,0-35.3,16.1-35.3,47.5
					c0,31.3,13.7,47.3,35.3,47.3C521.5,904.9,535.1,889,535.1,857.7z M635.8,806.9h1.1c7.7-15,22.4-25.8,43.9-25.8
					c3.6,0,7.5,0.5,10.2,1.2v36.1c-3.6-0.5-9.5-1.1-15.2-1.1c-22,0-38.3,9.7-38.3,39.5v73.7h-38.6V784.6h36.9V806.9z M797.8,828.7
					c-3.1-14.4-14.7-21.9-28.8-21.9c-14,0-23.8,6.1-23.8,17.3c0,10.5,10.6,13.5,25.6,16l14.9,2.3c26.1,4.4,51.5,12.2,51.5,44.8
					c0,31.9-29,46.6-67,46.6c-38.2,0-64.4-17.5-69.4-45.9l36-5.1c3.5,17.4,15.8,25.4,33.9,25.4c16.3,0,27.2-7.3,27.2-19.5
					c0-10.3-10.9-14.5-27.4-17.2l-16-2.6c-23.4-3.8-48.1-12.1-48.1-43.3c0-27.8,28.3-44.5,62.5-44.5c34,0,59.8,17.2,64.4,42.6
					L797.8,828.7z"/>
			</defs>
			<clipPath id="SVGID_00000083789995325370721480000008246006630140978844_" class="st2">
				<use xlink:href="#SVGID_1_"  style="overflow:visible;"/>
			</clipPath>
			<g style="display:inline;clip-path:url(#SVGID_00000083789995325370721480000008246006630140978844_);">
				<g>
					<defs>
						<rect id="SVGID_00000117635503846006888610000004270451008941638810_" x="-446.7" y="648.4" width="1586.1" height="419.8"/>
					</defs>
					<clipPath id="SVGID_00000060005188269571882940000011712759653399650477_">
						<use xlink:href="#SVGID_00000117635503846006888610000004270451008941638810_"  style="overflow:visible;"/>
					</clipPath>
					<g style="clip-path:url(#SVGID_00000060005188269571882940000011712759653399650477_);">
						
							<image style="overflow:visible;" width="6609" height="1750" xlink:href="A2190786.png"  transform="matrix(0.24 0 0 0.24 -446.6683 648.3645)">
						</image>
					</g>
				</g>
			</g>
			<g style="display:inline;clip-path:url(#SVGID_00000083789995325370721480000008246006630140978844_);">
				<g>
					<defs>
						<rect id="SVGID_00000035498609442646440090000017429593244573567894_" x="-353.5" y="666.1" width="1360.7" height="402.1"/>
					</defs>
					<clipPath id="SVGID_00000018231422279779918660000004043247432944180879_">
						<use xlink:href="#SVGID_00000035498609442646440090000017429593244573567894_"  style="overflow:visible;"/>
					</clipPath>
					<g style="clip-path:url(#SVGID_00000018231422279779918660000004043247432944180879_);">
						
							<image style="overflow:visible;" width="5670" height="1676" xlink:href="A219078A.png"  transform="matrix(0.24 0 0 0.24 -353.5483 666.1245)">
						</image>
					</g>
				</g>
			</g>
		</g>
		<g>
			
				<linearGradient id="SVGID_00000127022286017617424910000005482370212603305655_" gradientUnits="userSpaceOnUse" x1="0" y1="394.9245" x2="653.6682" y2="394.9245">
				<stop  offset="0" style="stop-color:#E11D48"/>
				<stop  offset="0.2463" style="stop-color:#E62D3E"/>
				<stop  offset="0.7285" style="stop-color:#F25826"/>
				<stop  offset="1" style="stop-color:#F97316"/>
			</linearGradient>
			
				<rect y="299.6" style="opacity:0.75;fill:url(#SVGID_00000127022286017617424910000005482370212603305655_);" width="653.7" height="190.7"/>
			<g>
				
					<linearGradient id="SVGID_00000182491969744484975220000015168526257294160010_" gradientUnits="userSpaceOnUse" x1="0.1532" y1="158.3701" x2="653.6682" y2="158.3701">
					<stop  offset="0" style="stop-color:#E11D48;stop-opacity:0.7"/>
					<stop  offset="1" style="stop-color:#E11D48"/>
				</linearGradient>
				<polygon style="fill:url(#SVGID_00000182491969744484975220000015168526257294160010_);" points="653.7,204.3 0.2,303.1 
					0.2,112.5 653.7,13.6 				"/>
			</g>
			
				<linearGradient id="SVGID_00000080207297100331645000000010748722219989733262_" gradientUnits="userSpaceOnUse" x1="7.661371e-02" y1="635.0032" x2="653.5916" y2="635.0032">
				<stop  offset="0" style="stop-color:#F97316"/>
				<stop  offset="1" style="stop-color:#F97316;stop-opacity:0.7"/>
			</linearGradient>
			<polygon style="fill:url(#SVGID_00000080207297100331645000000010748722219989733262_);" points="653.6,680.9 0.1,779.8 
				0.1,589.1 653.6,490.3 			"/>
			<path class="st7" d="M18.2,517.5H9.1c-5,0-9.1-4.1-9.1-9.1V90.8c0-5,4.1-9.1,9.1-9.1h9.1c5,0,9.1,4.1,9.1,9.1v417.6
				C27.2,513.4,23.2,517.5,18.2,517.5z"/>
			<path class="st8" d="M644.6,708.1h-9.1c-5,0-9.1-4.1-9.1-9.1V281.4c0-5,4.1-9.1,9.1-9.1h9.1c5,0,9.1,4.1,9.1,9.1v417.6
				C653.7,704.1,649.6,708.1,644.6,708.1z"/>
			<path class="st8" d="M18.2,789.8H9.1c-5,0-9.1-4.1-9.1-9.1V581c0-5,4.1-9.1,9.1-9.1h9.1c5,0,9.1,4.1,9.1,9.1v199.7
				C27.2,785.8,23.2,789.8,18.2,789.8z"/>
			<g>
				<path class="st7" d="M644.6,217.9h-9.1c-5,0-9.1-4.1-9.1-9.1V9.1c0-5,4.1-9.1,9.1-9.1h9.1c5,0,9.1,4.1,9.1,9.1v199.7
					C653.7,213.8,649.6,217.9,644.6,217.9z"/>
			</g>
		</g>
	</g>
</g>
</svg>
